# xmcd
#
# Track frame offsets: 
#        150
#        38037
#        52182
#        66877
#        89412
#        102487
#        121662
#        141662
#        163850
#
# Disc length: 2534 seconds
#
# Revision: 0
# Processed by: cddbd v1.5.2PL0 Copyright (c) Steve Scherf et al.
# Submitted via: ExactAudioCopy v1.3
#
DISCID=8409e409
DTITLE=Kingfish - In Concert [disk 1]
DYEAR=1995
DGENRE=Blues Rock
TTITLE0=Mystery Train Mule Skinner Blues
TTITLE1=Juke
TTITLE2=Jump Back
TTITLE3=Battle Hymn Of The Republic
TTITLE4=Goodbye Yer Honor
TTITLE5=Big Iron
TTITLE6=I Hear You Knockin'
TTITLE7=All I Need Is Time
TTITLE8=Around And Around
EXTD=
EXTT0=
EXTT1=
EXTT2=
EXTT3=
EXTT4=
EXTT5=
EXTT6=
EXTT7=
EXTT8=
PLAYORDER=
